HIERARCHY
ROOT Hips
{
	OFFSET 0.000000 0.000000 0.000000 
	CHANNELS 6 Xposition Yposition Zposition Zrotation Yrotation Xrotation
	JOINT LeftUpLeg
	{
		OFFSET 1.363060 -1.794630 0.839290 
		CHANNELS 3 Zrotation Yrotation Xrotation
		JOINT LeftLeg
		{
			OFFSET 2.448110 -6.726130 0.000000 
			CHANNELS 3 Zrotation Yrotation Xrotation
			JOINT LeftFoot
			{
				OFFSET 2.562200 -7.039590 0.000000 
				CHANNELS 3 Zrotation Yrotation Xrotation
				JOINT LeftToeBase
				{
					OFFSET 0.157640 -0.433110 2.322550 
					CHANNELS 3 Zrotation Yrotation Xrotation
					End Site
					{
						OFFSET 0.000000 0.000000 0.000000 
					}
				}
			}
		}
	}
	JOINT RightUpLeg
	{
		OFFSET -1.305520 -1.794630 0.839290 
		CHANNELS 3 Zrotation Yrotation Xrotation
		JOINT RightLeg
		{
			OFFSET -2.542530 -6.985550 0.000000 
			CHANNELS 3 Zrotation Yrotation Xrotation
			JOINT RightFoot
			{
				OFFSET -2.568260 -7.056230 0.000000 
				CHANNELS 3 Zrotation Yrotation Xrotation
				JOINT RightToeBase
				{
					OFFSET -0.164730 -0.452590 2.363150 
					CHANNELS 3 Zrotation Yrotation Xrotation
					End Site
					{
						OFFSET 0.000000 0.000000 0.000000 
					}
				}
			}
		}
	}
	JOINT Spine
	{
		OFFSET 0.028270 2.035590 -0.193380 
		CHANNELS 3 Zrotation Yrotation Xrotation
		JOINT Spine1
		{
			OFFSET 0.056720 2.048850 -0.042750 
			CHANNELS 3 Zrotation Yrotation Xrotation
			JOINT Neck1
			{
				OFFSET -0.054170 1.746240 0.172020 
				CHANNELS 3 Zrotation Yrotation Xrotation
				JOINT Head
				{
					OFFSET 0.104070 1.761360 -0.123970 
					CHANNELS 3 Zrotation Yrotation Xrotation
					End Site
					{
						OFFSET 0.000000 0.000000 0.000000 
					}
				}
			}
			JOINT LeftArm
			{
				OFFSET 3.362410 1.200890 -0.311210 
				CHANNELS 3 Zrotation Yrotation Xrotation
				JOINT LeftForeArm
				{
					OFFSET 4.983000 -0.000000 -0.000000 
					CHANNELS 3 Zrotation Yrotation Xrotation
					JOINT LeftHand
					{
						OFFSET 3.483560 -0.000000 -0.000000 
						CHANNELS 3 Zrotation Yrotation Xrotation
						JOINT LeftHandIndex1
						{
							OFFSET 0.715260 -0.000000 -0.000000 
							CHANNELS 3 Zrotation Yrotation Xrotation
							End Site
							{
								OFFSET 0.000000 0.000000 0.000000 
							}
						}
					}
				}
			}
			JOINT RightArm
			{
				OFFSET -3.136600 1.374050 -0.404650 
				CHANNELS 3 Zrotation Yrotation Xrotation
				JOINT RightForeArm
				{
					OFFSET -5.241900 -0.000000 -0.000000 
					CHANNELS 3 Zrotation Yrotation Xrotation
					JOINT RightHand
					{
						OFFSET -3.444170 -0.000000 -0.000000 
						CHANNELS 3 Zrotation Yrotation Xrotation
						JOINT RightHandIndex1
						{
							OFFSET -0.622530 -0.000000 -0.000000 
							CHANNELS 3 Zrotation Yrotation Xrotation
							End Site
							{
								OFFSET 0.000000 0.000000 0.000000 
							}
						}
					}
				}
			}
		}
	}
}
MOTION
Frames: 15
Frame Time: 0.041667
-0.275137 17.826390 -14.697140 -1.184353 4.479732 10.637846 -12.184346 -3.113938 -23.407372 0.722962 9.020327 24.641212 -0.075869 2.093129 1.753953 0.021700 -0.950800 -2.613400 19.234274 1.951453 -19.661419 -0.532333 -7.415138 20.738055 -0.376051 0.735304 -3.715231 -0.293800 -3.485600 9.633700 1.776929 -0.652633 -0.998125 1.229471 -0.642311 7.614271 3.737314 -2.169420 35.090426 1.034700 -0.501100 13.334000 -99.951537 -7.799701 40.117408 8.713120 -18.749072 -1.483808 0.120964 -0.707753 -18.180269 -7.125000 0.000000 0.000000 91.418351 6.324340 18.205004 -11.468600 24.023138 -2.774481 0.645662 0.985529 23.139535 7.125000 0.000000 0.000000 
-0.257118 17.823758 -14.683980 -1.210970 4.278320 10.690543 -12.183685 -2.939806 -23.242499 0.672087 8.910862 24.339551 -0.045492 1.931514 1.640168 0.033800 -1.187300 -3.264400 19.174931 2.088251 -19.682992 -0.539971 -7.443981 20.807084 -0.391174 0.817174 -3.794381 -0.289400 -3.459200 9.560100 1.749652 -0.570057 -1.015360 1.153600 -0.592634 7.570336 3.757428 -2.094956 34.911423 1.049500 -0.468500 13.207400 -99.734998 -7.717185 39.897368 8.681142 -18.700903 -1.480469 0.118969 -0.705752 -17.861199 -7.125000 0.000000 0.000000 91.410595 6.300654 18.213645 -11.395919 23.922659 -2.746296 0.645078 0.981819 23.306119 7.125000 0.000000 0.000000 
-0.239505 17.817988 -14.675072 -1.261083 4.081457 10.773180 -12.164048 -2.738471 -23.206585 0.637995 8.836426 24.138092 -0.004456 1.712087 1.488118 0.048700 -1.424800 -3.918500 19.137613 2.291921 -19.844610 -0.576743 -7.551139 21.091329 -0.410345 0.912554 -3.944321 -0.280800 -3.408400 9.417900 1.727261 -0.519713 -1.016671 1.084094 -0.561969 7.613155 3.766198 -2.011550 34.794856 1.064200 -0.433400 13.161300 -99.510379 -7.833171 39.734155 8.562862 -18.503306 -1.440789 0.106810 -0.707277 -17.468826 -7.125000 0.000000 0.000000 91.422275 6.374187 18.278151 -11.359331 23.875926 -2.734152 0.640357 0.979949 23.493771 7.125000 0.000000 0.000000 
-0.220271 17.801387 -14.670517 -1.359925 3.819582 10.768304 -12.120071 -2.486531 -23.116390 0.608925 8.765499 23.950744 0.022897 1.563491 1.253387 0.061900 -1.605800 -4.417500 19.141929 2.591382 -19.934452 -0.616936 -7.665236 21.395389 -0.411794 0.894169 -4.096099 -0.253000 -3.236600 8.938200 1.709251 -0.445255 -1.017907 1.029248 -0.520700 7.575076 3.739433 -1.892485 34.686552 1.061800 -0.382000 13.104300 -99.320001 -7.884597 39.449901 8.500739 -18.399592 -1.422224 0.108342 -0.705801 -16.919163 -7.125000 0.000000 0.000000 91.430228 6.496323 18.277986 -11.281898 23.758602 -2.702827 0.640523 0.975478 23.818689 7.125000 0.000000 0.000000 
-0.201342 17.786506 -14.665152 -1.437345 3.574996 10.776637 -12.101729 -2.254503 -23.048602 0.587916 8.711297 23.812208 0.051404 1.408746 0.978473 0.077900 -1.800200 -4.953900 19.121105 2.888939 -20.082625 -0.673676 -7.817879 21.809548 -0.421222 0.916412 -4.306679 -0.235000 -3.120100 8.613200 1.688967 -0.373488 -1.018070 0.973061 -0.480839 7.554882 3.726634 -1.793152 34.573296 1.065100 -0.339400 13.044700 -99.119883 -7.954279 39.207135 8.421152 -18.265507 -1.397670 0.105654 -0.704878 -16.447509 -7.125000 0.000000 0.000000 91.434910 6.611040 18.286633 -11.215684 23.659763 -2.677137 0.638380 0.971954 24.092378 7.125000 0.000000 0.000000 
-0.181906 17.767577 -14.661508 -1.522007 3.308153 10.758954 -12.097267 -1.999469 -22.993640 0.577557 8.676562 23.730861 0.073124 1.290452 0.630936 0.093400 -1.971200 -5.426000 19.101676 3.232972 -20.254905 -0.747022 -8.007486 22.329160 -0.429869 0.925484 -4.555704 -0.215500 -2.988300 8.246200 1.669360 -0.296300 -1.013186 0.924546 -0.439735 7.531202 3.705744 -1.690217 34.471056 1.064200 -0.295000 12.993200 -98.926720 -8.050093 38.954992 8.338127 -18.124050 -1.370967 0.102342 -0.704232 -15.976014 -7.125000 0.000000 0.000000 91.440741 6.762758 18.273815 -11.146972 23.554352 -2.650899 0.635628 0.967986 24.397817 7.125000 0.000000 0.000000 
-0.162167 17.744902 -14.659382 -1.613093 3.013170 10.713681 -12.110522 -1.716857 -22.934354 0.573475 8.652142 23.680109 0.082684 1.239386 0.225538 0.107200 -2.111500 -5.813800 19.085173 3.614636 -20.433832 -0.832139 -8.220102 22.916162 -0.436491 0.917091 -4.820629 -0.194000 -2.836100 7.822900 1.650637 -0.210323 -1.002382 0.887682 -0.396187 7.506267 3.675579 -1.583748 34.375527 1.058700 -0.249200 12.943900 -98.743701 -8.165181 38.686659 8.256926 -17.984859 -1.344146 0.098825 -0.703872 -15.519004 -7.125000 0.000000 0.000000 91.445981 6.949407 18.239871 -11.078386 23.445888 -2.624377 0.633255 0.963746 24.721938 7.125000 0.000000 0.000000 
-0.142124 17.718988 -14.658370 -1.707349 2.699328 10.642140 -12.147769 -1.413231 -22.875640 0.577043 8.641579 23.668966 0.076387 1.275685 -0.237703 0.120600 -2.238600 -6.165600 19.072491 4.008981 -20.629309 -0.930391 -8.456141 23.573585 -0.442984 0.903716 -5.100730 -0.169700 -2.654200 7.317400 1.632731 -0.121225 -0.984869 0.860116 -0.352773 7.486676 3.637255 -1.472966 34.288961 1.049000 -0.201200 12.898500 -98.569025 -8.299600 38.395271 8.176321 -17.846204 -1.316730 0.094230 -0.703965 -15.071105 -7.125000 0.000000 0.000000 91.454934 7.169157 18.180197 -11.013339 23.340133 -2.599556 0.631173 0.959005 25.059959 7.125000 0.000000 0.000000 
-0.122081 17.690543 -14.658370 -1.806496 2.372092 10.548761 -12.205116 -1.094953 -22.818814 0.587052 8.642748 23.690123 0.049881 1.421751 -0.737834 0.136000 -2.376900 -6.548600 19.068578 4.406030 -20.828958 -1.037406 -8.704191 24.269530 -0.449307 0.887426 -5.384029 -0.144900 -2.453300 6.760200 1.616509 -0.033425 -0.960210 0.844278 -0.311869 7.479119 3.589379 -1.355825 34.214684 1.034500 -0.150000 12.859300 -98.402592 -8.456694 38.079659 8.098358 -17.711809 -1.289398 0.088228 -0.704630 -14.646392 -7.125000 0.000000 0.000000 91.470452 7.419158 18.102343 -10.958103 23.246549 -2.578065 0.630266 0.954213 25.400047 7.125000 0.000000 0.000000 
-0.101734 17.661187 -14.658673 -1.908256 2.039695 10.432464 -12.279109 -0.782841 -22.750967 0.602399 8.653709 23.738167 0.000340 1.689657 -1.253905 0.155500 -2.540600 -7.002100 19.074383 4.777558 -21.015216 -1.147738 -8.950377 24.966296 -0.455812 0.872621 -5.658287 -0.119400 -2.228000 6.136200 1.601399 0.049122 -0.927822 0.834030 -0.274836 7.489330 3.534640 -1.233177 34.161294 1.016500 -0.095500 12.830400 -98.246118 -8.631427 37.720780 8.020874 -17.578304 -1.261850 0.081523 -0.705614 -14.207269 -7.125000 0.000000 0.000000 91.498753 7.688843 18.000478 -10.917107 23.172599 -2.561834 0.631001 0.949128 25.730870 7.125000 0.000000 0.000000 
-0.081589 17.632539 -14.659483 -2.007448 1.725505 10.306418 -12.360688 -0.512380 -22.679185 0.622116 8.674386 23.811122 -0.070491 2.064101 -1.746885 0.180500 -2.736300 -7.545300 19.087019 5.111252 -21.182549 -1.255110 -9.181463 25.625399 -0.459995 0.845495 -5.913523 -0.094900 -1.986800 5.469200 1.587993 0.114849 -0.891720 0.830143 -0.247316 7.511044 3.478128 -1.108162 34.137139 0.997700 -0.039100 12.815100 -98.096928 -8.819385 37.322149 7.941252 -17.440876 -1.233406 0.073898 -0.706752 -13.765252 -7.125000 0.000000 0.000000 91.543280 7.968065 17.881952 -10.892191 23.121586 -2.551579 0.633202 0.944079 26.034614 7.125000 0.000000 0.000000 
-0.061648 17.606625 -14.660698 -2.096716 1.444685 10.174379 -12.442159 -0.312953 -22.600053 0.645719 8.705027 23.910255 -0.155614 2.505643 -2.184129 0.210400 -2.953400 -8.149000 19.099752 5.396089 -21.315881 -1.353617 -9.386334 26.215125 -0.459670 0.793776 -6.141987 -0.072300 -1.734600 4.772700 1.575458 0.159306 -0.851574 0.829066 -0.230976 7.549852 3.427914 -0.984866 34.146395 0.982200 0.017800 12.814100 -97.954048 -9.024559 36.889278 7.859109 -17.299019 -1.204536 0.066327 -0.707789 -13.329009 -7.125000 0.000000 0.000000 91.611896 8.248032 17.736770 -10.887267 23.099911 -2.548826 0.637042 0.938861 26.306754 7.125000 0.000000 0.000000 
-0.042313 17.584861 -14.662419 -2.169929 1.207048 10.043808 -12.514104 -0.209496 -22.515962 0.672478 8.745820 24.035279 -0.245819 2.963025 -2.534491 0.241000 -3.159100 -8.722100 19.105138 5.640273 -21.409362 -1.439245 -9.558952 26.716328 -0.452226 0.701783 -6.339853 -0.052900 -1.484600 4.083200 1.563758 0.180152 -0.809810 0.832747 -0.227326 7.600463 3.383514 -0.865654 34.201589 0.969900 0.073900 12.834500 -97.822003 -9.244496 36.412766 7.770517 -17.145596 -1.173337 0.058188 -0.708902 -12.891542 -7.125000 0.000000 0.000000 91.707851 8.526837 17.561313 -10.898750 23.101926 -2.552045 0.641763 0.934074 26.535119 7.125000 0.000000 0.000000 
-0.023890 17.568158 -14.664241 -2.217710 1.018446 9.920932 -12.576562 -0.205531 -22.427442 0.701201 8.794411 24.180962 -0.327481 3.370003 -2.788865 0.264400 -3.308100 -9.137700 19.091325 5.851245 -21.459312 -1.510455 -9.698036 27.123840 -0.437875 0.570883 -6.508784 -0.038700 -1.269800 3.491400 1.551805 0.177309 -0.768323 0.842117 -0.236748 7.659560 3.345957 -0.753417 34.312095 0.961400 0.128100 12.882700 -97.699362 -9.479102 35.897614 7.673178 -16.976114 -1.139104 0.049086 -0.710061 -12.466144 -7.125000 0.000000 0.000000 91.836726 8.792076 17.343158 -10.926407 23.127430 -2.561777 0.646758 0.929071 26.724470 7.125000 0.000000 0.000000 
-0.007086 17.556517 -14.666063 -2.232462 0.875661 9.815008 -12.633787 -0.286514 -22.341211 0.729363 8.846237 24.334057 -0.389658 3.676206 -2.955961 0.274800 -3.371600 -9.315000 19.048992 6.047082 -21.475469 -1.567514 -9.806594 27.444228 -0.415599 0.395268 -6.651396 -0.029300 -1.105400 3.038700 1.538939 0.157996 -0.728435 0.864849 -0.256534 7.724740 3.321856 -0.653727 34.474749 0.961100 0.176900 12.955700 -97.585576 -9.728857 35.351915 7.566050 -16.789498 -1.101730 0.039519 -0.711130 -12.055211 -7.125000 0.000000 0.000000 91.999626 9.042984 17.076919 -10.966951 23.170764 -2.576222 0.652505 0.924297 26.866107 7.125000 0.000000 0.000000 
